<svg width="16" height="16" viewBox="0 0 16 16" fill="none" xmlns="http://www.w3.org/2000/svg">
<path fill-rule="evenodd" clip-rule="evenodd" d="M8.82207 0.017085C10.6744 0.130985 12.411 1.04218 13.6845 2.29508C15.1896 3.88968 16 5.82598 16 8.10398C16 9.92638 15.3054 11.6349 14.1476 13.1156C12.9899 14.4824 11.3691 15.5075 9.51671 15.8492C7.66434 16.1909 5.81197 15.9631 4.19115 15.0519C2.57032 14.1407 1.29682 12.7739 0.602181 11.0654C-0.0924575 9.35688 -0.208231 7.42058 0.370635 5.71208C0.9495 3.88968 1.99146 2.40898 3.61228 1.38388C5.11733 0.358785 6.9697 -0.096815 8.82207 0.017085ZM9.40094 14.7102C10.906 14.3685 12.2953 13.5712 13.3372 12.3183C14.2634 11.0654 14.8423 9.58468 14.7265 7.99008C14.7265 6.16768 14.0319 4.34528 12.7584 3.09238C11.6006 1.95338 10.2113 1.26998 8.59052 1.15608C7.08547 1.04218 5.46465 1.38388 4.19115 2.29508C2.91764 3.20628 1.99146 4.45918 1.52837 6.05378C1.06527 7.53448 1.06527 9.12908 1.75991 10.6098C2.45455 12.0905 3.49651 13.2295 4.88579 14.0268C6.27506 14.8241 7.89589 15.0519 9.40094 14.7102V14.7102ZM8.01166 7.42058L10.7902 4.57308L11.6006 5.37038L8.82207 8.21788L11.6006 11.0654L10.7902 11.8627L8.01166 9.01518L5.2331 11.8627L4.42269 11.0654L7.20125 8.21788L4.42269 5.37038L5.2331 4.57308L8.01166 7.42058V7.42058Z" fill="#7C1C24"/>
</svg>
