<svg width="26" height="24" viewBox="0 0 26 24" fill="none" xmlns="http://www.w3.org/2000/svg">
<path d="M12.9891 0.08632C6.22695 0.0835856 0.75 5.5578 0.75 12.3144C0.75 17.6574 4.17617 22.1992 8.94766 23.8672C9.59023 24.0285 9.4918 23.5719 9.4918 23.2601V21.141C5.78125 21.5758 5.63086 19.1203 5.38203 18.7101C4.87891 17.8516 3.68945 17.6328 4.04492 17.2226C4.88984 16.7879 5.75117 17.332 6.74922 18.8058C7.47109 19.875 8.8793 19.6945 9.59297 19.5168C9.74883 18.8742 10.0824 18.3 10.5418 17.8543C6.69727 17.1652 5.09492 14.8191 5.09492 12.0301C5.09492 10.6766 5.54063 9.43241 6.41563 8.4289C5.85781 6.7746 6.46758 5.35819 6.54961 5.14765C8.13828 5.00546 9.78984 6.28515 9.91836 6.38632C10.8207 6.14296 11.8516 6.01444 13.0055 6.01444C14.1648 6.01444 15.1984 6.14843 16.109 6.39452C16.418 6.15937 17.9492 5.06015 19.4258 5.19413C19.5051 5.40468 20.1012 6.78827 19.5762 8.42069C20.4621 9.42694 20.9133 10.682 20.9133 12.0383C20.9133 14.8328 19.3 17.1816 15.4445 17.8598C15.7748 18.1845 16.037 18.5718 16.2158 18.9991C16.3947 19.4263 16.4867 19.8849 16.4863 20.348V23.4242C16.5082 23.6703 16.4863 23.9137 16.8965 23.9137C21.7391 22.2812 25.2254 17.7066 25.2254 12.3172C25.2254 5.5578 19.7457 0.08632 12.9891 0.08632Z" fill="black"/>
</svg>
