<svg width="27" height="27" viewBox="0 0 27 27" fill="none" xmlns="http://www.w3.org/2000/svg">
<path d="M13.5 24.3225C13.3343 24.322 13.1734 24.2666 13.0425 24.165C8.8725 20.925 6 18.135 3.99 15.3825C1.425 11.865 0.839999 8.61749 2.25 5.72999C3.255 3.66749 6.1425 1.97999 9.5175 2.96249C11.1267 3.4273 12.5306 4.42408 13.5 5.78999C14.4694 4.42408 15.8733 3.4273 17.4825 2.96249C20.85 1.99499 23.745 3.66749 24.75 5.72999C26.16 8.61749 25.575 11.865 23.01 15.3825C21 18.135 18.1275 20.925 13.9575 24.165C13.8266 24.2666 13.6657 24.322 13.5 24.3225V24.3225ZM7.5975 4.18499C6.79444 4.15374 5.99803 4.34178 5.29376 4.72893C4.58949 5.11608 4.00395 5.68772 3.6 6.38249C2.4375 8.76749 2.9625 11.4225 5.205 14.49C7.58818 17.5639 10.3788 20.2991 13.5 22.62C16.6207 20.3014 19.4113 17.5688 21.795 14.4975C24.045 11.4225 24.5625 8.76749 23.4 6.38999C22.65 4.88999 20.4 3.69749 17.895 4.40249C17.0918 4.63987 16.3472 5.04278 15.7091 5.5853C15.0709 6.12782 14.5535 6.79792 14.19 7.55249C14.1335 7.69005 14.0374 7.80771 13.9138 7.89051C13.7903 7.97331 13.645 8.01752 13.4963 8.01752C13.3475 8.01752 13.2022 7.97331 13.0787 7.89051C12.9551 7.80771 12.859 7.69005 12.8025 7.55249C12.4417 6.79603 11.9252 6.12436 11.2867 5.58151C10.6482 5.03865 9.90214 4.63687 9.0975 4.40249C8.60998 4.26089 8.10516 4.18769 7.5975 4.18499V4.18499Z" fill="black"/>
</svg>
