<svg width="27" height="27" viewBox="0 0 27 27" fill="none" xmlns="http://www.w3.org/2000/svg">
<path d="M24.75 5.72999C23.745 3.66749 20.85 1.97999 17.4825 2.96249C15.8733 3.4273 14.4694 4.42408 13.5 5.78999C12.5306 4.42408 11.1267 3.4273 9.5175 2.96249C6.1425 1.99499 3.255 3.66749 2.25 5.72999C0.839999 8.61749 1.425 11.865 3.99 15.3825C6 18.135 8.8725 20.925 13.0425 24.165C13.1743 24.2678 13.3366 24.3236 13.5037 24.3236C13.6709 24.3236 13.8332 24.2678 13.965 24.165C18.1275 20.9325 21.0075 18.165 23.0175 15.3825C25.575 11.865 26.16 8.61749 24.75 5.72999Z" fill="black"/>
</svg>
