<svg width="27" height="27" viewBox="0 0 27 27" fill="none" xmlns="http://www.w3.org/2000/svg">
<path d="M24.9566 13.3154L14.096 2.46269C14.0178 2.38433 13.9249 2.32217 13.8227 2.27976C13.7204 2.23735 13.6108 2.21552 13.5001 2.21552C13.3894 2.21552 13.2798 2.23735 13.1775 2.27976C13.0753 2.32217 12.9824 2.38433 12.9042 2.46269L2.04355 13.3154C1.72715 13.6318 1.54785 14.0616 1.54785 14.5099C1.54785 15.4406 2.30459 16.1974 3.23535 16.1974H4.37969V23.9414C4.37969 24.4081 4.75674 24.7851 5.22344 24.7851H11.8126V18.8789H14.7657V24.7851H21.7768C22.2435 24.7851 22.6205 24.4081 22.6205 23.9414V16.1974H23.7648C24.2131 16.1974 24.6429 16.0207 24.9593 15.7017C25.6158 15.0425 25.6158 13.9746 24.9566 13.3154V13.3154Z" fill="black"/>
</svg>
