<svg width="27" height="28" viewBox="0 0 27 28" fill="none" xmlns="http://www.w3.org/2000/svg">
<path d="M24.9565 13.8085L14.7682 3.84689L14.0853 3.17883C13.9297 3.02762 13.7193 2.94275 13.5 2.94275C13.2806 2.94275 13.0702 3.02762 12.9146 3.17883L2.04342 13.8085C1.88398 13.9639 1.75797 14.1489 1.67283 14.3527C1.5877 14.5565 1.54515 14.7749 1.54772 14.9951C1.55826 15.903 2.33082 16.6278 3.25895 16.6278H4.37955V25.0289H22.6204V16.6278H23.7647C24.2156 16.6278 24.6401 16.455 24.9591 16.1429C25.1162 15.9897 25.2407 15.8075 25.3253 15.607C25.41 15.4064 25.4531 15.1914 25.4522 14.9744C25.4522 14.5359 25.2755 14.1206 24.9565 13.8085ZM14.9765 23.1718H12.0234V17.9098H14.9765V23.1718ZM20.7219 14.7706V23.1718H16.664V17.2907C16.664 16.7207 16.1921 16.259 15.6093 16.259H11.3906C10.8079 16.259 10.3359 16.7207 10.3359 17.2907V23.1718H6.27799V14.7706H3.74674L13.5026 5.23461L14.1117 5.83045L23.2558 14.7706H20.7219Z" fill="black"/>
</svg>
