<svg width="27" height="27" viewBox="0 0 27 27" fill="none" xmlns="http://www.w3.org/2000/svg">
<path d="M13.5 2.20081C11.275 2.20081 9.09989 2.84619 7.24984 4.05534C5.39979 5.2645 3.95785 6.98311 3.10636 8.99386C2.25487 11.0046 2.03209 13.2172 2.46617 15.3518C2.90025 17.4864 3.97171 19.4471 5.54505 20.9861C7.11839 22.5251 9.12295 23.5731 11.3052 23.9977C13.4875 24.4223 15.7495 24.2044 17.8052 23.3715C19.8609 22.5386 21.6179 21.1282 22.854 19.3186C24.0902 17.5089 24.75 15.3814 24.75 13.205C24.75 11.7599 24.459 10.3289 23.8937 8.99386C23.3283 7.65877 22.4996 6.44568 21.455 5.42385C20.4103 4.40202 19.1701 3.59146 17.8052 3.03845C16.4403 2.48544 14.9774 2.20081 13.5 2.20081V2.20081ZM14.625 17.6066C14.625 17.8985 14.5065 18.1784 14.2955 18.3848C14.0845 18.5911 13.7984 18.7071 13.5 18.7071C13.2016 18.7071 12.9155 18.5911 12.7045 18.3848C12.4935 18.1784 12.375 17.8985 12.375 17.6066V12.1046C12.375 11.8127 12.4935 11.5328 12.7045 11.3264C12.9155 11.1201 13.2016 11.0041 13.5 11.0041C13.7984 11.0041 14.0845 11.1201 14.2955 11.3264C14.5065 11.5328 14.625 11.8127 14.625 12.1046V17.6066ZM13.5 9.90372C13.2775 9.90372 13.06 9.83918 12.875 9.71827C12.69 9.59735 12.5458 9.42549 12.4606 9.22442C12.3755 9.02334 12.3532 8.80208 12.3966 8.58863C12.44 8.37517 12.5472 8.17909 12.7045 8.02519C12.8618 7.8713 13.0623 7.76649 13.2805 7.72403C13.4988 7.68157 13.725 7.70337 13.9305 7.78665C14.1361 7.86994 14.3118 8.01098 14.4354 8.19195C14.559 8.37291 14.625 8.58566 14.625 8.80331C14.625 9.09515 14.5065 9.37505 14.2955 9.58142C14.0845 9.78779 13.7984 9.90372 13.5 9.90372Z" fill="black"/>
</svg>
