<svg width="27" height="27" viewBox="0 0 27 27" fill="none" xmlns="http://www.w3.org/2000/svg">
<path d="M13.5 2.20081C11.275 2.20081 9.09989 2.84619 7.24984 4.05534C5.39979 5.2645 3.95785 6.98311 3.10636 8.99386C2.25487 11.0046 2.03209 13.2172 2.46617 15.3518C2.90025 17.4864 3.97171 19.4471 5.54505 20.9861C7.11839 22.5251 9.12295 23.5731 11.3052 23.9977C13.4875 24.4223 15.7495 24.2044 17.8052 23.3715C19.8609 22.5386 21.6179 21.1282 22.854 19.3186C24.0902 17.5089 24.75 15.3814 24.75 13.205C24.75 11.7599 24.459 10.3289 23.8937 8.99386C23.3283 7.65877 22.4996 6.44568 21.455 5.42385C20.4103 4.40202 19.1701 3.59146 17.8052 3.03845C16.4403 2.48544 14.9774 2.20081 13.5 2.20081V2.20081ZM13.5 22.0083C11.72 22.0083 9.97992 21.492 8.49987 20.5247C7.01983 19.5574 5.86628 18.1825 5.18509 16.5739C4.5039 14.9653 4.32567 13.1952 4.67294 11.4875C5.0202 9.77985 5.87737 8.21124 7.13604 6.98008C8.39472 5.74891 9.99836 4.91047 11.7442 4.57079C13.49 4.23111 15.2996 4.40545 16.9442 5.07175C18.5887 5.73806 19.9943 6.8664 20.9832 8.3141C21.9722 9.7618 22.5 11.4638 22.5 13.205C22.5 15.5398 21.5518 17.7789 19.864 19.4299C18.1761 21.0808 15.887 22.0083 13.5 22.0083V22.0083Z" fill="black"/>
<path d="M13.5 9.90371C14.1213 9.90371 14.625 9.41104 14.625 8.8033C14.625 8.19555 14.1213 7.70288 13.5 7.70288C12.8787 7.70288 12.375 8.19555 12.375 8.8033C12.375 9.41104 12.8787 9.90371 13.5 9.90371Z" fill="black"/>
<path d="M13.5 11.0042C13.2016 11.0042 12.9155 11.1201 12.7045 11.3265C12.4935 11.5328 12.375 11.8127 12.375 12.1046V17.6066C12.375 17.8985 12.4935 18.1784 12.7045 18.3848C12.9155 18.5911 13.2016 18.7071 13.5 18.7071C13.7984 18.7071 14.0845 18.5911 14.2955 18.3848C14.5065 18.1784 14.625 17.8985 14.625 17.6066V12.1046C14.625 11.8127 14.5065 11.5328 14.2955 11.3265C14.0845 11.1201 13.7984 11.0042 13.5 11.0042Z" fill="black"/>
</svg>
