<svg width="41" height="96" viewBox="0 0 41 96" fill="none" xmlns="http://www.w3.org/2000/svg">
<path d="M26.1348 23.1558L41 54.472L39.6486 66.0454L30.8646 59.2375L26.1348 23.1558Z" fill="white"/>
<path d="M2.48555 63.3222H29.5132L22.7563 12.944L15.9994 11.9228L9.24247 12.944L2.48555 63.3222Z" fill="white"/>
<path d="M15.9994 96L31.9988 80.5757L29.4255 62.748H2.57325L0 80.5757L15.9994 96Z" fill="white"/>
<path d="M6.5397 0.689804H25.4591L29.8511 3.41295L24.7834 10.9016L15.9994 10.2208L7.2154 10.9016L2.14771 3.41295L6.5397 0.689804Z" fill="white"/>
<path d="M29.8511 3.41295C27.1483 5.81126 23.4629 4.77453 15.9994 4.77453C8.5359 4.77453 4.85047 5.81126 2.14771 3.41295C2.14771 -0.346931 8.5359 0.0090214 15.9994 0.0090214C23.4629 0.0090214 29.8511 -0.346931 29.8511 3.41295Z" fill="white"/>
</svg>
