<svg width="21" height="21" viewBox="0 0 21 21" fill="none" xmlns="http://www.w3.org/2000/svg">
<path d="M19.0312 3.28125H1.96875C1.60576 3.28125 1.3125 3.57451 1.3125 3.9375V17.0625C1.3125 17.4255 1.60576 17.7188 1.96875 17.7188H19.0312C19.3942 17.7188 19.6875 17.4255 19.6875 17.0625V3.9375C19.6875 3.57451 19.3942 3.28125 19.0312 3.28125ZM18.2109 5.55352V16.2422H2.78906V5.55352L2.22305 5.1126L3.029 4.07695L3.90674 4.75986H17.0953L17.973 4.07695L18.779 5.1126L18.2109 5.55352ZM17.0953 4.75781L10.5 9.88477L3.90469 4.75781L3.02695 4.0749L2.221 5.11055L2.78701 5.55147L9.79248 10.9983C9.99395 11.1549 10.2418 11.2398 10.4969 11.2398C10.752 11.2398 10.9999 11.1549 11.2014 10.9983L18.2109 5.55352L18.777 5.1126L17.971 4.07695L17.0953 4.75781Z" fill="black"/>
</svg>
