<svg width="27" height="28" viewBox="0 0 27 28" fill="none" xmlns="http://www.w3.org/2000/svg">
<path d="M22.14 12.6685H4.86005C4.11485 12.6685 4.05005 13.2588 4.05005 13.9891C4.05005 14.7194 4.11485 15.3098 4.86005 15.3098H22.14C22.8852 15.3098 22.95 14.7194 22.95 13.9891C22.95 13.2588 22.8852 12.6685 22.14 12.6685ZM22.14 17.9511H4.86005C4.11485 17.9511 4.05005 18.5414 4.05005 19.2717C4.05005 20.0021 4.11485 20.5924 4.86005 20.5924H22.14C22.8852 20.5924 22.95 20.0021 22.95 19.2717C22.95 18.5414 22.8852 17.9511 22.14 17.9511ZM4.86005 10.0272H22.14C22.8852 10.0272 22.95 9.43684 22.95 8.70652C22.95 7.9762 22.8852 7.38586 22.14 7.38586H4.86005C4.11485 7.38586 4.05005 7.9762 4.05005 8.70652C4.05005 9.43684 4.11485 10.0272 4.86005 10.0272Z" fill="black"/>
</svg>
