<svg width="27" height="28" viewBox="0 0 27 28" fill="none" xmlns="http://www.w3.org/2000/svg">
<path d="M13.5 2.9837C7.40137 2.9837 2.25 8.02309 2.25 13.9891C2.25 17.4988 4.041 20.6782 6.75 22.7098V22.7935H6.86475C8.74125 24.1637 11.0396 24.9946 13.5 24.9946C15.9604 24.9946 18.2588 24.1637 20.1353 22.7935H20.25V22.7098C22.959 20.6782 24.75 17.4999 24.75 13.9891C24.75 8.02309 19.5986 2.9837 13.5 2.9837ZM9.08325 21.6126C9.24903 20.879 9.66548 20.2225 10.2639 19.7516C10.8623 19.2806 11.607 19.0232 12.375 19.0219H14.625C15.393 19.0234 16.1375 19.2809 16.7359 19.7518C17.3343 20.2227 17.7508 20.8791 17.9167 21.6126C16.6027 22.3577 15.093 22.7935 13.5 22.7935C11.907 22.7935 10.3973 22.3577 9.08325 21.6126ZM19.8113 20.1973C19.3821 19.1979 18.6612 18.3444 17.7387 17.7439C16.8162 17.1433 15.7331 16.8222 14.625 16.8208H12.375C11.2669 16.8222 10.1838 17.1433 9.2613 17.7439C8.3388 18.3444 7.61787 19.1979 7.18875 20.1973C5.53837 18.5916 4.5 16.3839 4.5 13.9891C4.5 9.21608 8.62088 5.18479 13.5 5.18479C18.3791 5.18479 22.5 9.21608 22.5 13.9891C22.5 16.3839 21.4616 18.5916 19.8113 20.1973Z" fill="black"/>
<path d="M13.5 7.38586C10.935 7.38586 9 9.2788 9 11.788C9 14.2973 10.935 16.1902 13.5 16.1902C16.065 16.1902 18 14.2973 18 11.788C18 9.2788 16.065 7.38586 13.5 7.38586ZM13.5 13.9891C12.1748 13.9891 11.25 13.0845 11.25 11.788C11.25 10.4916 12.1748 9.58695 13.5 9.58695C14.8253 9.58695 15.75 10.4916 15.75 11.788C15.75 13.0845 14.8253 13.9891 13.5 13.9891Z" fill="black"/>
</svg>
