<svg width="24" height="24" viewBox="0 0 24 24" fill="none" xmlns="http://www.w3.org/2000/svg">
<path d="M20.3093 17.708C22.1963 15.66 22.0063 13.03 22.0003 13V5C22.0003 4.73478 21.8949 4.48043 21.7074 4.29289C21.5198 4.10536 21.2655 4 21.0003 4H15.0003C13.8973 4 13.0003 4.897 13.0003 6V13C13.0003 13.2652 13.1056 13.5196 13.2932 13.7071C13.4807 13.8946 13.7351 14 14.0003 14H17.0783C17.0571 14.4944 16.9094 14.9751 16.6493 15.396C16.1413 16.197 15.1843 16.744 13.8033 17.02L13.0003 17.18V20H14.0003C16.7833 20 18.9063 19.229 20.3093 17.708ZM9.30228 17.708C11.1903 15.66 10.9993 13.03 10.9933 13V5C10.9933 4.73478 10.8879 4.48043 10.7004 4.29289C10.5129 4.10536 10.2585 4 9.99328 4H3.99328C2.89029 4 1.99329 4.897 1.99329 6V13C1.99329 13.2652 2.09864 13.5196 2.28618 13.7071C2.47372 13.8946 2.72807 14 2.99329 14H6.07128C6.05016 14.4944 5.90244 14.9751 5.64228 15.396C5.13428 16.197 4.17728 16.744 2.79629 17.02L1.99329 17.18V20H2.99329C5.77628 20 7.89928 19.229 9.30228 17.708Z" fill="black"/>
</svg>
