<svg width="24" height="24" viewBox="0 0 24 24" fill="none" xmlns="http://www.w3.org/2000/svg">
<path d="M3.69094 6.292C5.09394 4.771 7.21694 4 9.99994 4H10.9999V6.819L10.1959 6.98C8.82594 7.254 7.87294 7.793 7.36294 8.584C7.09683 9.01013 6.94591 9.49804 6.92494 10H9.99994C10.2652 10 10.5195 10.1054 10.707 10.2929C10.8946 10.4804 10.9999 10.7348 10.9999 11V18C10.9999 19.103 10.1029 20 8.99994 20H2.99994C2.73472 20 2.48037 19.8946 2.29283 19.7071C2.1053 19.5196 1.99994 19.2652 1.99994 19V14L2.00294 11.081C1.99394 10.97 1.80394 8.34 3.69094 6.292ZM19.9999 20H13.9999C13.7347 20 13.4804 19.8946 13.2928 19.7071C13.1053 19.5196 12.9999 19.2652 12.9999 19V14L13.0029 11.081C12.9939 10.97 12.8039 8.34 14.6909 6.292C16.0939 4.771 18.2169 4 20.9999 4H21.9999V6.819L21.1959 6.98C19.8259 7.254 18.8729 7.793 18.3629 8.584C18.0968 9.01013 17.9459 9.49804 17.9249 10H20.9999C21.2652 10 21.5195 10.1054 21.707 10.2929C21.8946 10.4804 21.9999 10.7348 21.9999 11V18C21.9999 19.103 21.1029 20 19.9999 20Z" fill="black"/>
</svg>
