<svg width="28" height="20" viewBox="0 0 28 20" fill="none" xmlns="http://www.w3.org/2000/svg">
<path d="M16.6667 8.66665H20.532L20.5307 8.65465C20.3566 7.80216 20.0158 6.99245 19.528 6.27198C18.8021 5.20241 17.7838 4.3642 16.5947 3.85731C16.192 3.68665 15.772 3.55598 15.344 3.46931C14.4562 3.28931 13.5412 3.28931 12.6533 3.46931C11.3774 3.73077 10.2065 4.36187 9.28668 5.28398L7.39868 3.40131C8.24959 2.55017 9.25634 1.8707 10.364 1.39998C10.9289 1.16082 11.5163 0.978586 12.1173 0.855981C13.3576 0.603996 14.6358 0.603996 15.876 0.855981C16.4775 0.979094 17.0653 1.16177 17.6307 1.40131C19.2966 2.10812 20.7228 3.28143 21.7373 4.77998C22.4202 5.79045 22.8977 6.9253 23.1427 8.11998C23.18 8.29998 23.2 8.48398 23.2267 8.66665H27.3333L22 14L16.6667 8.66665ZM11.3333 11.3333H7.46801L7.46934 11.344C7.81772 13.053 8.82505 14.5561 10.2733 15.528C10.9936 16.0162 11.8034 16.357 12.656 16.5306C13.5434 16.7107 14.4579 16.7107 15.3453 16.5306C16.1978 16.3566 17.0075 16.0158 17.728 15.528C18.0818 15.2886 18.4122 15.0163 18.7147 14.7146L20.6 16.6C19.7487 17.4509 18.7414 18.1299 17.6333 18.6C17.068 18.84 16.4773 19.0226 15.88 19.144C14.6403 19.3961 13.3624 19.3961 12.1227 19.144C9.73262 18.6479 7.6303 17.2392 6.26268 15.2173C5.58053 14.2076 5.10349 13.0737 4.85867 11.88C4.82267 11.7 4.80134 11.516 4.77468 11.3333H0.666676L6.00001 5.99998L11.3333 11.3333Z" fill="black"/>
</svg>
