<svg width="27" height="28" viewBox="0 0 27 28" fill="none" xmlns="http://www.w3.org/2000/svg">
<path d="M11.25 20.5924C13.2468 20.592 15.1862 19.9381 16.7591 18.7347L21.7046 23.5727L23.2954 22.0165L18.3499 17.1785C19.5806 15.6396 20.2495 13.742 20.25 11.7881C20.25 6.93355 16.2124 2.9837 11.25 2.9837C6.28763 2.9837 2.25 6.93355 2.25 11.7881C2.25 16.6426 6.28763 20.5924 11.25 20.5924ZM11.25 5.18479C14.9726 5.18479 18 8.14635 18 11.7881C18 15.4298 14.9726 18.3913 11.25 18.3913C7.52737 18.3913 4.5 15.4298 4.5 11.7881C4.5 8.14635 7.52737 5.18479 11.25 5.18479Z" fill="black"/>
</svg>
