<svg width="16" height="16" viewBox="0 0 16 16" fill="none" xmlns="http://www.w3.org/2000/svg">
<path d="M8 0C6.41775 0 4.87103 0.469192 3.55544 1.34824C2.23985 2.22729 1.21447 3.47672 0.608967 4.93853C0.00346625 6.40034 -0.15496 8.00887 0.153721 9.56072C0.462403 11.1126 1.22433 12.538 2.34315 13.6569C3.46197 14.7757 4.88743 15.5376 6.43928 15.8463C7.99113 16.155 9.59966 15.9965 11.0615 15.391C12.5233 14.7855 13.7727 13.7602 14.6518 12.4446C15.5308 11.129 16 9.58225 16 8C16 5.87827 15.1571 3.84344 13.6569 2.34315C12.1566 0.842855 10.1217 0 8 0V0ZM8 15C6.61553 15 5.26216 14.5895 4.11101 13.8203C2.95987 13.0511 2.06266 11.9579 1.53285 10.6788C1.00303 9.3997 0.86441 7.99223 1.13451 6.63437C1.4046 5.2765 2.07129 4.02922 3.05026 3.05025C4.02922 2.07128 5.2765 1.4046 6.63437 1.1345C7.99224 0.864407 9.39971 1.00303 10.6788 1.53284C11.9579 2.06266 13.0511 2.95986 13.8203 4.11101C14.5895 5.26215 15 6.61553 15 8C15 9.85652 14.2625 11.637 12.9498 12.9497C11.637 14.2625 9.85652 15 8 15Z" fill="#0D2E14"/>
<path d="M13 5.05C12.9063 4.95687 12.7796 4.9046 12.6475 4.9046C12.5154 4.9046 12.3886 4.95687 12.295 5.05L6.74497 10.575L3.74497 7.575C3.65347 7.47621 3.52647 7.41781 3.39191 7.41265C3.25736 7.40749 3.12626 7.456 3.02747 7.5475C2.92868 7.639 2.87028 7.766 2.86512 7.90055C2.85996 8.03511 2.90847 8.16621 2.99997 8.265L6.74497 12L13 5.76C13.0468 5.71352 13.084 5.65822 13.1094 5.59729C13.1348 5.53636 13.1479 5.471 13.1479 5.405C13.1479 5.33899 13.1348 5.27364 13.1094 5.21271C13.084 5.15178 13.0468 5.09648 13 5.05Z" fill="#0D2E14"/>
</svg>
