<svg width="29" height="29" viewBox="0 0 29 29" fill="none" xmlns="http://www.w3.org/2000/svg">
<path d="M24.0128 16.7656H4.30469C4.18008 16.7656 4.07813 16.8676 4.07813 16.9922V18.6914C4.07813 18.816 4.18008 18.918 4.30469 18.918H21.4441L17.3575 24.1006C17.2414 24.2479 17.3462 24.4688 17.5359 24.4688H19.5892C19.7279 24.4688 19.8582 24.4064 19.946 24.296L24.7265 18.2326C25.1938 17.6379 24.7718 16.7656 24.0128 16.7656ZM24.6953 10.082H7.55586L11.6425 4.89941C11.7586 4.75215 11.6538 4.53125 11.4641 4.53125H9.41084C9.27207 4.53125 9.1418 4.59355 9.05401 4.704L4.27354 10.7674C3.80625 11.3621 4.22823 12.2344 4.98438 12.2344H24.6953C24.8199 12.2344 24.9219 12.1324 24.9219 12.0078V10.3086C24.9219 10.184 24.8199 10.082 24.6953 10.082Z" fill="black"/>
</svg>
